# xmcd
#
# Track frame offsets: 
#        150
#        10447
#        21226
#        34022
#        45690
#        56832
#        65543
#        76112
#        89108
#        101589
#        110113
#        122498
#
# Disc length: 1788 seconds
#
# Revision: 0
# Processed by: cddbd v1.5.2PL0 Copyright (c) Steve Scherf et al.
# Submitted via: ExactAudioCopy v0.99pb4
#
DISCID=a106fa0c
DTITLE=Johnny Cash - Sings the Songs That Made Him Famous
DYEAR=1958
DGENRE=Country
TTITLE0=Ballad of a Teenage Queen
TTITLE1=There You Go
TTITLE2=I Walk The Line
TTITLE3=Don't Make Me Go
TTITLE4=Train of Love
TTITLE5=Guess Things Happen That Way
TTITLE6=Ways of a Woman In Love
TTITLE7=Next In Line
TTITLE8=You're the Nearest Thing to Heaven
TTITLE9=I Can't Help It If I'm Still In Love With You
TTITLE10=Home of the Blues
TTITLE11=Big River
EXTD=
EXTT0=
EXTT1=
EXTT2=
EXTT3=
EXTT4=
EXTT5=
EXTT6=
EXTT7=
EXTT8=
EXTT9=
EXTT10=
EXTT11=
PLAYORDER=
